<svg width="22" height="22" viewBox="0 0 22 22" fill="none" xmlns="http://www.w3.org/2000/svg">
<path fill-rule="evenodd" clip-rule="evenodd" d="M14.8741 8.49951C14.8741 12.0202 12.0201 14.8741 8.49946 14.8741C4.97887 14.8741 2.12487 12.0202 2.12487 8.49951C2.12487 4.9789 4.97887 2.12488 8.49946 2.12488C12.0201 2.12488 14.8741 4.9789 14.8741 8.49951ZM13.7115 15.214C12.2721 16.3328 10.4635 16.999 8.49946 16.999C3.80534 16.999 0 13.1937 0 8.49951C0 3.80536 3.80534 0 8.49946 0C13.1936 0 16.9989 3.80536 16.9989 8.49951C16.9989 10.4636 16.3327 12.2722 15.2139 13.7114L22 20.4976L20.4974 22L13.7115 15.214Z" fill="#F9FBFA"/>
</svg>
