<svg width="16" height="16" viewBox="0 0 16 16" fill="none" xmlns="http://www.w3.org/2000/svg">
  <path d="M3.89744 0H12.1026C13.1358 0.00137317 14.1264 0.434647 14.857 1.2048C15.5877 1.97495 15.9987 3.0191 16 4.10825V15.3519C15.9999 15.4801 15.9637 15.6054 15.8961 15.712C15.8285 15.8186 15.7324 15.9016 15.62 15.9507C15.5077 15.9997 15.384 16.0125 15.2647 15.9876C15.1454 15.9626 15.0358 15.9009 14.9497 15.8103L12.969 13.7224C12.8738 13.6218 12.7606 13.542 12.636 13.4877C12.5113 13.4334 12.3777 13.4056 12.2429 13.4059H3.89744C2.86417 13.4045 1.8736 12.9712 1.14297 12.2011C0.412342 11.4309 0.00130272 10.3868 0 9.29763V4.10825C0.00130272 3.0191 0.412342 1.97495 1.14297 1.2048C1.8736 0.434647 2.86417 0.00137317 3.89744 0ZM1.23077 9.29763C1.23164 10.0428 1.51287 10.7573 2.01278 11.2842C2.51269 11.8112 3.19046 12.1076 3.89744 12.1085H12.2429C12.5394 12.1076 12.8332 12.1687 13.1071 12.2884C13.3811 12.4081 13.6298 12.5839 13.8388 12.8056L14.7692 13.7856V4.10825C14.7684 3.36304 14.4871 2.6486 13.9872 2.12165C13.4873 1.5947 12.8095 1.29826 12.1026 1.29734H3.89744C3.19046 1.29826 2.51269 1.5947 2.01278 2.12165C1.51287 2.6486 1.23164 3.36304 1.23077 4.10825V9.29763ZM10.4615 6.70294C10.4615 6.874 10.5097 7.04122 10.5998 7.18345C10.69 7.32568 10.8181 7.43654 10.9681 7.502C11.118 7.56746 11.283 7.58459 11.4421 7.55122C11.6013 7.51785 11.7475 7.43547 11.8622 7.31452C11.977 7.19356 12.0551 7.03945 12.0868 6.87167C12.1185 6.7039 12.1022 6.53 12.0401 6.37196C11.978 6.21392 11.8728 6.07884 11.7379 5.98381C11.603 5.88877 11.4443 5.83805 11.2821 5.83805C11.0644 5.83805 10.8557 5.92917 10.7019 6.09137C10.548 6.25357 10.4615 6.47356 10.4615 6.70294ZM7.17949 6.70294C7.17949 6.874 7.22761 7.04122 7.31777 7.18345C7.40793 7.32568 7.53607 7.43654 7.686 7.502C7.83593 7.56746 8.00091 7.58459 8.16007 7.55122C8.31924 7.51785 8.46544 7.43547 8.58019 7.31452C8.69494 7.19356 8.77309 7.03945 8.80475 6.87167C8.83641 6.7039 8.82016 6.53 8.75806 6.37196C8.69595 6.21392 8.59079 6.07884 8.45585 5.98381C8.32092 5.88877 8.16228 5.83805 8 5.83805C7.78239 5.83805 7.57369 5.92917 7.41981 6.09137C7.26593 6.25357 7.17949 6.47356 7.17949 6.70294ZM3.89744 6.70294C3.89744 6.874 3.94556 7.04122 4.03572 7.18345C4.12588 7.32568 4.25402 7.43654 4.40395 7.502C4.55388 7.56746 4.71886 7.58459 4.87802 7.55122C5.03719 7.51785 5.18339 7.43547 5.29814 7.31452C5.41289 7.19356 5.49104 7.03945 5.5227 6.87167C5.55436 6.7039 5.53811 6.53 5.476 6.37196C5.4139 6.21392 5.30873 6.07884 5.1738 5.98381C5.03887 5.88877 4.88023 5.83805 4.71795 5.83805C4.50033 5.83805 4.29163 5.92917 4.13776 6.09137C3.98388 6.25357 3.89744 6.47356 3.89744 6.70294Z" fill="currentColor"/>
</svg>
