<svg width="28" height="28" viewBox="0 0 28 28" fill="none" xmlns="http://www.w3.org/2000/svg">
  <path d="M18.6666 14.875H9.33325C8.85492 14.875 8.45825 14.4783 8.45825 14C8.45825 13.5217 8.85492 13.125 9.33325 13.125H18.6666C19.1449 13.125 19.5416 13.5217 19.5416 14C19.5416 14.4783 19.1449 14.875 18.6666 14.875Z" fill="currentColor"/>
  <path d="M14 19.5417C13.5217 19.5417 13.125 19.145 13.125 18.6667V9.33333C13.125 8.855 13.5217 8.45833 14 8.45833C14.4783 8.45833 14.875 8.855 14.875 9.33333V18.6667C14.875 19.145 14.4783 19.5417 14 19.5417Z" fill="currentColor"/>
  <path d="M17.4999 26.5417H10.4999C4.16492 26.5417 1.45825 23.835 1.45825 17.5V10.5C1.45825 4.165 4.16492 1.45833 10.4999 1.45833H17.4999C23.8349 1.45833 26.5416 4.165 26.5416 10.5V17.5C26.5416 23.835 23.8349 26.5417 17.4999 26.5417ZM10.4999 3.20833C5.12158 3.20833 3.20825 5.12167 3.20825 10.5V17.5C3.20825 22.8783 5.12158 24.7917 10.4999 24.7917H17.4999C22.8783 24.7917 24.7916 22.8783 24.7916 17.5V10.5C24.7916 5.12167 22.8783 3.20833 17.4999 3.20833H10.4999Z" fill="currentColor"/>
</svg>
