<svg width="16" height="17" viewBox="0 0 16 17" fill="none" xmlns="http://www.w3.org/2000/svg">
  <path fill-rule="evenodd" clip-rule="evenodd" d="M12.515 0.912372L14.46 2.49537C14.6478 2.67836 14.7531 2.92988 14.7515 3.19207C14.75 3.45427 14.6419 3.70456 14.452 3.88537L12.974 5.68537L7.944 11.8224C7.8569 11.925 7.7397 11.9974 7.609 12.0294L5.00102 12.6294C4.65496 12.6437 4.35654 12.3885 4.31702 12.0444L4.43902 9.47136C4.44806 9.33996 4.50006 9.21526 4.58702 9.11636L9.4 3.25137L11.095 1.18337C11.4243 0.735112 12.0438 0.616902 12.515 0.912372Z" stroke="black" stroke-width="1.5" stroke-linecap="round" stroke-linejoin="round"/>
  <path d="M0.75 14.9914C0.33579 14.9914 0 15.3272 0 15.7414C0 16.1557 0.33579 16.4914 0.75 16.4914V14.9914ZM14.45 16.4914C14.8642 16.4914 15.2 16.1557 15.2 15.7414C15.2 15.3272 14.8642 14.9914 14.45 14.9914V16.4914ZM10.0955 2.97068C9.9404 2.58658 9.5034 2.40088 9.1193 2.55592C8.7352 2.71096 8.5495 3.14802 8.7045 3.53212L10.0955 2.97068ZM13.1393 6.41997C13.5433 6.32869 13.7968 5.92717 13.7056 5.52314C13.6143 5.1191 13.2128 4.86556 12.8087 4.95684L13.1393 6.41997ZM0.75 16.4914H14.45V14.9914H0.75V16.4914ZM8.7045 3.53212C8.9372 4.10849 9.415 4.93018 10.1265 5.56286C10.8511 6.20724 11.883 6.70377 13.1393 6.41997L12.8087 4.95684C12.166 5.10204 11.6109 4.87557 11.1233 4.44195C10.6225 3.99662 10.2628 3.38532 10.0955 2.97068L8.7045 3.53212Z" fill="currentColor"/>
</svg>
