<svg width="28" height="28" viewBox="0 0 28 28" fill="none" xmlns="http://www.w3.org/2000/svg">
  <g clip-path="url(#clip0_76_283)">
    <path d="M9.33341 7H5.83341C5.18825 7 4.66675 6.47733 4.66675 5.83333C4.66675 5.18933 5.18825 4.66667 5.83341 4.66667H9.33341C9.97858 4.66667 10.5001 5.18933 10.5001 5.83333C10.5001 6.47733 9.97858 7 9.33341 7ZM15.1667 11.6667H5.83341C5.18825 11.6667 4.66675 11.144 4.66675 10.5C4.66675 9.856 5.18825 9.33333 5.83341 9.33333H15.1667C15.8119 9.33333 16.3334 9.856 16.3334 10.5C16.3334 11.144 15.8119 11.6667 15.1667 11.6667ZM15.1667 16.3333H5.83341C5.18825 16.3333 4.66675 15.8107 4.66675 15.1667C4.66675 14.5227 5.18825 14 5.83341 14H15.1667C15.8119 14 16.3334 14.5227 16.3334 15.1667C16.3334 15.8107 15.8119 16.3333 15.1667 16.3333Z" fill="currentColor"/>
    <path d="M21 2.33333V11.6667C21 12.3083 20.475 12.8333 19.8333 12.8333C19.1917 12.8333 18.6667 12.3083 18.6667 11.6667V2.91667C18.6667 2.59 18.41 2.33333 18.0833 2.33333H2.91667C2.59 2.33333 2.33333 2.59 2.33333 2.91667V25.0833C2.33333 25.41 2.59 25.6667 2.91667 25.6667H18.0833C18.41 25.6667 18.6667 25.41 18.6667 25.0833V24.5C18.6667 23.8583 19.1917 23.3333 19.8333 23.3333C20.475 23.3333 21 23.8583 21 24.5V25.6667C21 26.95 19.95 28 18.6667 28H2.33333C1.05 28 0 26.95 0 25.6667V2.33333C0 1.05 1.05 0 2.33333 0H18.6667C19.95 0 21 1.05 21 2.33333Z" fill="currentColor"/>
    <path d="M27.6616 10.2865C28.175 10.7975 28.0956 11.7005 27.489 12.3072L18.3481 21.4538C18.2665 21.5332 18.1755 21.6008 18.0833 21.6557L15.3043 23.1922C14.9193 23.4057 14.4876 23.3695 14.2228 23.1047C13.9591 22.8398 13.9311 22.4012 14.1411 22.0278L15.6905 19.2593C15.7395 19.1602 15.8071 19.0808 15.8795 19.0073C15.8795 18.9933 15.8876 18.9863 15.8876 18.9863L25.0285 9.83967C25.6351 9.233 26.5381 9.15484 27.0468 9.66467L27.6651 10.283L27.6616 10.2865Z" fill="currentColor"/>
  </g>
  <defs>
    <clipPath id="clip0_76_283">
      <rect width="28" height="28" fill="currentColor"/>
    </clipPath>
  </defs>
</svg>
