<svg width="19" height="20" viewBox="0 0 19 20" fill="none" xmlns="http://www.w3.org/2000/svg">
  <path d="M17.7501 3.75004H0.75" stroke="currentColor" stroke-width="1.5" stroke-linecap="round"/>
  <path d="M16.0832 6.25004L15.6232 13.1491C15.4462 15.804 15.3577 17.1315 14.4927 17.9407C13.6277 18.75 12.2973 18.75 9.6365 18.75H8.8632C6.20235 18.75 4.87195 18.75 4.00694 17.9407C3.14194 17.1315 3.05344 15.804 2.87644 13.1491L2.4165 6.25004" stroke="currentColor" stroke-width="1.5" stroke-linecap="round"/>
  <path d="M6.75 8.75004L7.25 13.75" stroke="currentColor" stroke-width="1.5" stroke-linecap="round"/>
  <path d="M11.75 8.75004L11.25 13.75" stroke="currentColor" stroke-width="1.5" stroke-linecap="round"/>
  <path d="M3.75 3.75004C3.80588 3.75004 3.83382 3.75004 3.85915 3.7494C4.68259 3.72853 5.40902 3.20495 5.68922 2.43036C5.69784 2.40653 5.70667 2.38003 5.72434 2.32701L5.82143 2.03575C5.90431 1.78712 5.94575 1.6628 6.00071 1.55724C6.22001 1.13611 6.62574 0.843678 7.09461 0.768808C7.21213 0.750038 7.3432 0.750038 7.6053 0.750038H10.8947C11.1568 0.750038 11.2879 0.750038 11.4054 0.768808C11.8743 0.843678 12.28 1.13611 12.4993 1.55724C12.5543 1.6628 12.5957 1.78712 12.6786 2.03575L12.7757 2.32701C12.7933 2.37996 12.8022 2.40655 12.8108 2.43036C13.091 3.20495 13.8174 3.72853 14.6409 3.7494C14.6662 3.75004 14.6941 3.75004 14.75 3.75004" stroke="currentColor" stroke-width="1.5"/>
</svg>
